<?xml version="1.0" encoding="UTF-8"?>
<svg id="Layer_1" xmlns="http://www.w3.org/2000/svg" version="1.1" viewBox="0 0 576 216">
  <!-- Generator: Adobe Illustrator 30.0.0, SVG Export Plug-In . SVG Version: 2.1.1 Build 123)  -->
  <defs>
    <style>
      .st0 {
        fill: #e25f59;
      }

      .st1 {
        isolation: isolate;
      }
    </style>
  </defs>
  <g class="st1">
    <g class="st1">
      <g class="st1">
        <path class="st0" d="M112.67,38.38c12.33,0,21.08,11.04,21.08,23.07,0,17.6-11.64,24.47-26.85,24.07-.5,0-1.49,0-1.49,1.49v13.03c0,5.57-4.97,8.35-9.85,8.35s-9.75-2.78-9.75-8.35v-49.63c0-6.96,2.69-12.03,10.14-12.03h16.71ZM114.26,61.45c0-3.28-1.39-6.96-4.87-6.96-3.08,0-4.77,3.18-4.77,6.96s1.69,6.96,4.77,6.96c3.48,0,4.87-3.68,4.87-6.96Z"/>
        <path class="st0" d="M137.23,46.34c0-5.57,4.97-8.35,9.85-8.35s9.75,2.79,9.75,8.35v53.71c0,5.57-4.97,8.35-9.85,8.35s-9.75-2.78-9.75-8.35v-53.71Z"/>
        <path class="st0" d="M171.94,108c-7.46,0-10.14-5.07-10.14-12.03v-45.55c0-6.96,2.69-12.03,10.14-12.03h19.29c5.07,0,8.06,3.38,8.06,8.95,0,4.08-2.49,8.75-8.06,8.75h-5.87c-2.39,0-3.98,1.59-3.98,4.28s1.59,4.28,3.98,4.28h5.47c4.77,0,7.16,3.88,7.16,8.55,0,4.28-2.39,8.55-7.16,8.55h-5.47c-2.39,0-3.98,1.59-3.98,4.28s1.59,4.28,3.98,4.28h5.87c5.07,0,8.06,3.38,8.06,8.95,0,4.08-2.49,8.75-8.06,8.75h-19.29Z"/>
        <path class="st0" d="M220.17,73.19c0,6.66,2.29,16.21,10.64,16.21,5.77,0,11.14,1.39,11.14,9.45,0,7.26-5.67,9.55-12.83,9.55-19.1,0-28.84-17.3-28.84-35.21s9.75-35.21,28.84-35.21c7.16,0,12.83,2.29,12.83,9.55,0,8.06-5.37,9.45-11.14,9.45-8.35,0-10.64,9.55-10.64,16.21Z"/>
        <path class="st0" d="M255.08,108c-7.46,0-10.14-5.07-10.14-12.03v-45.55c0-6.96,2.69-12.03,10.14-12.03h19.29c5.07,0,8.06,3.38,8.06,8.95,0,4.08-2.49,8.75-8.06,8.75h-5.87c-2.39,0-3.98,1.59-3.98,4.28s1.59,4.28,3.98,4.28h5.47c4.77,0,7.16,3.88,7.16,8.55,0,4.28-2.39,8.55-7.16,8.55h-5.47c-2.39,0-3.98,1.59-3.98,4.28s1.59,4.28,3.98,4.28h5.87c5.07,0,8.06,3.38,8.06,8.95,0,4.08-2.49,8.75-8.06,8.75h-19.29Z"/>
      </g>
    </g>
  </g>
  <g class="st1">
    <g class="st1">
      <g class="st1">
        <path class="st0" d="M273.25,109.59c12.33,0,21.08,11.04,21.08,23.07,0,17.6-11.64,24.47-26.85,24.07-.5,0-1.49,0-1.49,1.49v13.03c0,5.57-4.97,8.35-9.85,8.35s-9.75-2.78-9.75-8.35v-49.63c0-6.96,2.69-12.03,10.14-12.03h16.71ZM274.84,132.66c0-3.28-1.39-6.96-4.87-6.96-3.08,0-4.77,3.18-4.77,6.96s1.69,6.96,4.77,6.96c3.48,0,4.87-3.68,4.87-6.96Z"/>
        <path class="st0" d="M297.81,117.55c0-5.57,4.97-8.35,9.85-8.35s9.75,2.79,9.75,8.35v53.71c0,5.57-4.97,8.35-9.85,8.35s-9.75-2.78-9.75-8.35v-53.71Z"/>
        <path class="st0" d="M354.2,161.11c5.57,0,8.35,4.67,8.35,9.15s-2.78,8.95-8.35,8.95h-25.76c-5.27,0-8.25-4.67-6.56-9.55l14.42-40.48c.4-1.19.2-1.49-1.29-1.49h-6.27c-5.57,0-8.35-4.58-8.35-9.05s2.79-9.05,8.35-9.05h24.57c5.17,0,9.05,5.17,7.06,10.44l-14.52,39.38c-.5,1.29-.3,1.69,1.19,1.69h7.16Z"/>
        <path class="st0" d="M396.86,161.11c5.57,0,8.35,4.67,8.35,9.15s-2.79,8.95-8.35,8.95h-25.76c-5.27,0-8.25-4.67-6.56-9.55l14.42-40.48c.4-1.19.2-1.49-1.29-1.49h-6.27c-5.57,0-8.35-4.58-8.35-9.05s2.79-9.05,8.35-9.05h24.57c5.17,0,9.05,5.17,7.06,10.44l-14.52,39.38c-.5,1.29-.3,1.69,1.19,1.69h7.16Z"/>
        <path class="st0" d="M431.07,109.19c5.57,0,10.84,2.29,12.33,8.45l12.23,51.82c1.99,8.35-3.88,10.14-9.15,10.14-11.24,0-8.25-11.24-12.03-11.24h-6.17c-3.78,0-.8,11.24-12.03,11.24-5.27,0-11.04-1.79-9.15-10.14l11.74-51.82c1.39-6.17,6.66-8.45,12.23-8.45ZM431.37,133.86l-2.69,19.2c-.1.8-.3,1.89.8,1.89h3.58c1,0,.9-1.09.8-1.89l-2.49-19.2Z"/>
      </g>
    </g>
  </g>
  <g class="st1">
    <g class="st1">
      <g class="st1">
        <path class="st0" d="M301.73,80.59c-11.7,0-15.21-10.99-15.21-21.03s3.5-21.03,15.21-21.03,15.21,10.99,15.21,21.03-3.5,21.03-15.21,21.03ZM301.73,69.84c3.09,0,3.5-5.17,3.5-10.28s-.42-10.28-3.5-10.28-3.5,5.17-3.5,10.28.42,10.28,3.5,10.28Z"/>
        <path class="st0" d="M318.78,55.65c0-3.03,4.93-2.55,4.93-5.94,0-.3-.06-.48-.48-.48-3.68.18-5.11-.95-5.11-4.93,0-3.39,1.66-5.76,5.29-5.76,4.99,0,5.29,3.15,5.29,7.66s-1.19,8.61-5.11,10.57c-1.66.83-4.81,1.84-4.81-1.13Z"/>
      </g>
    </g>
  </g>
</svg>